solid Untitled-59c28170
facet normal 0.0 0.0 1.0
  outer loop
    vertex 34.327397245550415 -8.914120772583827 2.2499999999999996
    vertex 29.32739724555041 -1.4141207725838374 2.2499999999999996
    vertex 29.327397245550433 -8.914120772583837 2.2499999999999996
  endloop
endfacet
facet normal 0.0 0.0 1.0
  outer loop
    vertex 34.327397245550415 -1.4141207725838312 2.2499999999999996
    vertex 29.32739724555041 -1.4141207725838374 2.2499999999999996
    vertex 34.327397245550415 -8.914120772583827 2.2499999999999996
  endloop
endfacet
facet normal 1.0 2.844946500601963e-16 0.0
  outer loop
    vertex 34.327397245550415 -1.4141207725838312 2.2499999999999996
    vertex 34.327397245550415 -8.914120772583827 2.2499999999999996
    vertex 34.327397245550415 -1.4141207725838312 0.0
  endloop
endfacet
facet normal 0.0 0.0 1.0
  outer loop
    vertex 14.077397245550422 -20.664120772583825 2.2499999999999996
    vertex 10.077397245550415 -13.164120772583844 2.2499999999999996
    vertex 8.577397245550413 -11.66412077258384 2.2499999999999996
  endloop
endfacet
facet normal 1.0 2.844946500601963e-16 0.0
  outer loop
    vertex 8.577397245550413 0.8358792274161573 2.2499999999999996
    vertex 8.577397245550413 -11.66412077258384 2.2499999999999996
    vertex 8.577397245550413 0.8358792274161573 0.0
  endloop
endfacet
facet normal 2.844946500601963e-16 -1.0 0.0
  outer loop
    vertex 10.077397245550415 2.335879227416161 2.2499999999999996
    vertex 10.077397245550415 2.335879227416161 0.0
    vertex 14.077397245550404 2.3358792274161604 0.0
  endloop
endfacet
facet normal 0.0 0.0 1.0
  outer loop
    vertex 17.57739724555041 10.335879227416166 2.2499999999999996
    vertex 6.577397245550411 10.335879227416154 2.2499999999999996
    vertex 15.577397245550419 0.835879227416161 2.2499999999999996
  endloop
endfacet
facet normal -2.844946500601963e-16 1.0 0.0
  outer loop
    vertex 17.57739724555041 10.335879227416166 2.2499999999999996
    vertex 6.577397245550411 10.335879227416154 0.0
    vertex 6.577397245550411 10.335879227416154 2.2499999999999996
  endloop
endfacet
facet normal 0.0 0.0 1.0
  outer loop
    vertex 15.577397245550419 0.835879227416161 2.2499999999999996
    vertex 6.577397245550411 10.335879227416154 2.2499999999999996
    vertex 14.077397245550404 2.3358792274161604 2.2499999999999996
  endloop
endfacet
facet normal 2.844946500601963e-16 -1.0 0.0
  outer loop
    vertex 29.327397245550433 -8.914120772583837 2.2499999999999996
    vertex 34.327397245550415 -8.914120772583827 0.0
    vertex 34.327397245550415 -8.914120772583827 2.2499999999999996
  endloop
endfacet
facet normal 0.0 0.0 1.0
  outer loop
    vertex 14.077397245550404 2.3358792274161604 2.2499999999999996
    vertex 6.577397245550411 10.335879227416154 2.2499999999999996
    vertex 10.077397245550415 2.335879227416161 2.2499999999999996
  endloop
endfacet
facet normal 0.0 0.0 1.0
  outer loop
    vertex 10.077397245550415 2.335879227416161 2.2499999999999996
    vertex 6.577397245550411 10.335879227416154 2.2499999999999996
    vertex 8.577397245550413 0.8358792274161573 2.2499999999999996
  endloop
endfacet
facet normal 2.844946500601963e-16 -1.0 0.0
  outer loop
    vertex 10.077397245550415 2.335879227416161 2.2499999999999996
    vertex 14.077397245550404 2.3358792274161604 0.0
    vertex 14.077397245550404 2.3358792274161604 2.2499999999999996
  endloop
endfacet
facet normal 0.0 0.0 1.0
  outer loop
    vertex 26.82739724555041 -8.914120772583834 2.2499999999999996
    vertex 23.07739724555041 -1.4141207725838365 2.2499999999999996
    vertex 21.577397245550415 0.08587922741616072 2.2499999999999996
  endloop
endfacet
facet normal 0.0 0.0 1.0
  outer loop
    vertex 8.577397245550413 0.8358792274161573 2.2499999999999996
    vertex 6.577397245550411 10.335879227416154 2.2499999999999996
    vertex 8.577397245550413 -11.66412077258384 2.2499999999999996
  endloop
endfacet
facet normal -0.707106781186547 -0.707106781186548 0.0
  outer loop
    vertex 15.577397245550419 0.835879227416161 2.2499999999999996
    vertex 14.077397245550404 2.3358792274161604 0.0
    vertex 15.577397245550419 0.835879227416161 0.0
  endloop
endfacet
facet normal 0.7071067811865474 0.7071067811865478 0.0
  outer loop
    vertex 23.07739724555041 -1.4141207725838365 2.2499999999999996
    vertex 23.07739724555041 -1.4141207725838365 0.0
    vertex 21.577397245550415 0.08587922741616072 2.2499999999999996
  endloop
endfacet
facet normal 0.0 0.0 1.0
  outer loop
    vertex 26.82739724555041 -8.914120772583834 2.2499999999999996
    vertex 21.577397245550415 0.08587922741616072 2.2499999999999996
    vertex 19.32739724555042 -8.914120772583837 2.2499999999999996
  endloop
endfacet
facet normal 0.7071067811865474 0.7071067811865478 0.0
  outer loop
    vertex 21.577397245550415 0.08587922741616072 2.2499999999999996
    vertex 23.07739724555041 -1.4141207725838365 0.0
    vertex 21.577397245550415 0.08587922741616072 0.0
  endloop
endfacet
facet normal 1.0 2.844946500601963e-16 0.0
  outer loop
    vertex 21.577397245550415 6.335879227416169 0.0
    vertex 21.577397245550415 0.08587922741616072 2.2499999999999996
    vertex 21.577397245550415 0.08587922741616072 0.0
  endloop
endfacet
facet normal 0.0 0.0 1.0
  outer loop
    vertex 26.827397245550426 -1.4141207725838305 2.2499999999999996
    vertex 23.07739724555041 -1.4141207725838365 2.2499999999999996
    vertex 26.82739724555041 -8.914120772583834 2.2499999999999996
  endloop
endfacet
facet normal -2.844946500601963e-16 1.0 0.0
  outer loop
    vertex 26.827397245550426 -1.4141207725838305 2.2499999999999996
    vertex 23.07739724555041 -1.4141207725838365 0.0
    vertex 23.07739724555041 -1.4141207725838365 2.2499999999999996
  endloop
endfacet
facet normal 1.0 2.844946500601963e-16 0.0
  outer loop
    vertex 26.827397245550426 -1.4141207725838305 2.2499999999999996
    vertex 26.82739724555041 -8.914120772583834 2.2499999999999996
    vertex 26.827397245550426 -1.4141207725838305 0.0
  endloop
endfacet
facet normal -2.844946500601963e-16 1.0 0.0
  outer loop
    vertex 26.827397245550426 -1.4141207725838305 2.2499999999999996
    vertex 26.827397245550426 -1.4141207725838305 0.0
    vertex 23.07739724555041 -1.4141207725838365 0.0
  endloop
endfacet
facet normal 0.0 0.0 1.0
  outer loop
    vertex 19.32739724555042 -8.914120772583837 2.2499999999999996
    vertex 15.577397245550419 0.835879227416161 2.2499999999999996
    vertex 15.577397245550419 -5.164120772583841 2.2499999999999996
  endloop
endfacet
facet normal -0.7071067811865474 -0.7071067811865478 0.0
  outer loop
    vertex 15.577397245550419 -5.164120772583841 2.2499999999999996
    vertex 19.32739724555042 -8.914120772583837 0.0
    vertex 19.32739724555042 -8.914120772583837 2.2499999999999996
  endloop
endfacet
facet normal 2.844946500601963e-16 -1.0 0.0
  outer loop
    vertex 19.32739724555042 -8.914120772583837 2.2499999999999996
    vertex 26.82739724555041 -8.914120772583834 0.0
    vertex 26.82739724555041 -8.914120772583834 2.2499999999999996
  endloop
endfacet
facet normal 1.0 2.844946500601963e-16 0.0
  outer loop
    vertex 26.827397245550426 -1.4141207725838305 0.0
    vertex 26.82739724555041 -8.914120772583834 2.2499999999999996
    vertex 26.82739724555041 -8.914120772583834 0.0
  endloop
endfacet
facet normal -1.0 -2.844946500601963e-16 0.0
  outer loop
    vertex 15.577397245550419 0.835879227416161 0.0
    vertex 15.577397245550419 -5.164120772583841 0.0
    vertex 15.577397245550419 0.835879227416161 2.2499999999999996
  endloop
endfacet
facet normal 2.844946500601963e-16 -1.0 0.0
  outer loop
    vertex 19.32739724555042 -8.914120772583837 2.2499999999999996
    vertex 19.32739724555042 -8.914120772583837 0.0
    vertex 26.82739724555041 -8.914120772583834 0.0
  endloop
endfacet
facet normal -1.0 -2.844946500601963e-16 0.0
  outer loop
    vertex 15.577397245550419 0.835879227416161 2.2499999999999996
    vertex 15.577397245550419 -5.164120772583841 0.0
    vertex 15.577397245550419 -5.164120772583841 2.2499999999999996
  endloop
endfacet
facet normal -0.7071067811865474 -0.7071067811865478 0.0
  outer loop
    vertex 15.577397245550419 -5.164120772583841 2.2499999999999996
    vertex 15.577397245550419 -5.164120772583841 0.0
    vertex 19.32739724555042 -8.914120772583837 0.0
  endloop
endfacet
facet normal -0.707106781186547 -0.707106781186548 0.0
  outer loop
    vertex 14.077397245550404 2.3358792274161604 2.2499999999999996
    vertex 14.077397245550404 2.3358792274161604 0.0
    vertex 15.577397245550419 0.835879227416161 2.2499999999999996
  endloop
endfacet
facet normal 0.0 0.0 1.0
  outer loop
    vertex 14.077397245550422 -20.664120772583825 2.2499999999999996
    vertex 8.577397245550413 -11.66412077258384 2.2499999999999996
    vertex 6.57739724555042 -20.664120772583843 2.2499999999999996
  endloop
endfacet
facet normal 0.7071067811865474 0.7071067811865478 0.0
  outer loop
    vertex 10.077397245550415 -13.164120772583844 2.2499999999999996
    vertex 10.077397245550415 -13.164120772583844 0.0
    vertex 8.577397245550413 -11.66412077258384 2.2499999999999996
  endloop
endfacet
facet normal 0.7071067811865474 0.7071067811865478 0.0
  outer loop
    vertex 8.577397245550413 -11.66412077258384 2.2499999999999996
    vertex 10.077397245550415 -13.164120772583844 0.0
    vertex 8.577397245550413 -11.66412077258384 0.0
  endloop
endfacet
facet normal 1.0 2.844946500601963e-16 0.0
  outer loop
    vertex 14.077397245550411 -13.16412077258384 2.2499999999999996
    vertex 14.077397245550422 -20.664120772583825 2.2499999999999996
    vertex 14.077397245550411 -13.16412077258384 0.0
  endloop
endfacet
facet normal 1.0 2.844946500601963e-16 0.0
  outer loop
    vertex 8.577397245550413 0.8358792274161573 0.0
    vertex 8.577397245550413 -11.66412077258384 2.2499999999999996
    vertex 8.577397245550413 -11.66412077258384 0.0
  endloop
endfacet
facet normal -2.844946500601963e-16 1.0 0.0
  outer loop
    vertex 14.077397245550411 -13.16412077258384 2.2499999999999996
    vertex 10.077397245550415 -13.164120772583844 0.0
    vertex 10.077397245550415 -13.164120772583844 2.2499999999999996
  endloop
endfacet
facet normal -2.844946500601963e-16 1.0 0.0
  outer loop
    vertex 14.077397245550411 -13.16412077258384 2.2499999999999996
    vertex 14.077397245550411 -13.16412077258384 0.0
    vertex 10.077397245550415 -13.164120772583844 0.0
  endloop
endfacet
facet normal 2.844946500601963e-16 -1.0 0.0
  outer loop
    vertex 6.57739724555042 -20.664120772583843 2.2499999999999996
    vertex 14.077397245550422 -20.664120772583825 0.0
    vertex 14.077397245550422 -20.664120772583825 2.2499999999999996
  endloop
endfacet
facet normal 1.0 2.844946500601963e-16 0.0
  outer loop
    vertex 14.077397245550411 -13.16412077258384 0.0
    vertex 14.077397245550422 -20.664120772583825 2.2499999999999996
    vertex 14.077397245550422 -20.664120772583825 0.0
  endloop
endfacet
facet normal -2.844946500601963e-16 1.0 0.0
  outer loop
    vertex 34.327397245550415 -1.4141207725838312 2.2499999999999996
    vertex 34.327397245550415 -1.4141207725838312 0.0
    vertex 29.32739724555041 -1.4141207725838374 0.0
  endloop
endfacet
facet normal -2.844946500601963e-16 1.0 0.0
  outer loop
    vertex 34.327397245550415 -1.4141207725838312 2.2499999999999996
    vertex 29.32739724555041 -1.4141207725838374 0.0
    vertex 29.32739724555041 -1.4141207725838374 2.2499999999999996
  endloop
endfacet
facet normal -1.0 -2.844946500601963e-16 0.0
  outer loop
    vertex 2.5773972455504124 6.335879227416157 2.2499999999999996
    vertex 2.5773972455504204 -16.66412077258384 0.0
    vertex 2.5773972455504204 -16.66412077258384 2.2499999999999996
  endloop
endfacet
facet normal 0.0 0.0 1.0
  outer loop
    vertex 14.077397245550422 -20.664120772583825 2.2499999999999996
    vertex 14.077397245550411 -13.16412077258384 2.2499999999999996
    vertex 10.077397245550415 -13.164120772583844 2.2499999999999996
  endloop
endfacet
facet normal -0.7071067811865476 -0.7071067811865476 -1.4773261682620729e-16
  outer loop
    vertex 2.5773972455504204 -16.66412077258384 0.0
    vertex 6.57739724555042 -20.664120772583843 0.0
    vertex 2.5773972455504204 -16.66412077258384 2.2499999999999996
  endloop
endfacet
facet normal -1.0 -2.844946500601963e-16 0.0
  outer loop
    vertex 2.5773972455504124 6.335879227416157 0.0
    vertex 2.5773972455504204 -16.66412077258384 0.0
    vertex 2.5773972455504124 6.335879227416157 2.2499999999999996
  endloop
endfacet
facet normal 0.0 0.0 1.0
  outer loop
    vertex 6.57739724555042 -20.664120772583843 2.2499999999999996
    vertex 6.577397245550411 10.335879227416154 2.2499999999999996
    vertex 2.5773972455504124 6.335879227416157 2.2499999999999996
  endloop
endfacet
facet normal 0.0 0.0 1.0
  outer loop
    vertex 8.577397245550413 -11.66412077258384 2.2499999999999996
    vertex 6.577397245550411 10.335879227416154 2.2499999999999996
    vertex 6.57739724555042 -20.664120772583843 2.2499999999999996
  endloop
endfacet
facet normal -0.707106781186548 0.707106781186547 0.0
  outer loop
    vertex 6.577397245550411 10.335879227416154 2.2499999999999996
    vertex 2.5773972455504124 6.335879227416157 0.0
    vertex 2.5773972455504124 6.335879227416157 2.2499999999999996
  endloop
endfacet
facet normal -0.707106781186548 0.707106781186547 2.954652336524145e-16
  outer loop
    vertex 6.577397245550411 10.335879227416154 0.0
    vertex 2.5773972455504124 6.335879227416157 0.0
    vertex 6.577397245550411 10.335879227416154 2.2499999999999996
  endloop
endfacet
facet normal 0.0 0.0 1.0
  outer loop
    vertex 21.577397245550415 6.335879227416169 2.2499999999999996
    vertex 17.57739724555041 10.335879227416166 2.2499999999999996
    vertex 21.577397245550415 0.08587922741616072 2.2499999999999996
  endloop
endfacet
facet normal -0.7071067811865476 -0.7071067811865476 -2.9546523365241457e-16
  outer loop
    vertex 2.5773972455504204 -16.66412077258384 2.2499999999999996
    vertex 6.57739724555042 -20.664120772583843 0.0
    vertex 6.57739724555042 -20.664120772583843 2.2499999999999996
  endloop
endfacet
facet normal 0.7071067811865476 0.7071067811865476 -2.9546523365241457e-16
  outer loop
    vertex 17.57739724555041 10.335879227416166 2.2499999999999996
    vertex 21.577397245550415 6.335879227416169 2.2499999999999996
    vertex 17.57739724555041 10.335879227416166 0.0
  endloop
endfacet
facet normal 0.0 0.0 1.0
  outer loop
    vertex 21.577397245550415 0.08587922741616072 2.2499999999999996
    vertex 17.57739724555041 10.335879227416166 2.2499999999999996
    vertex 19.32739724555042 -8.914120772583837 2.2499999999999996
  endloop
endfacet
facet normal 0.0 0.0 1.0
  outer loop
    vertex 6.57739724555042 -20.664120772583843 2.2499999999999996
    vertex 2.5773972455504124 6.335879227416157 2.2499999999999996
    vertex 2.5773972455504204 -16.66412077258384 2.2499999999999996
  endloop
endfacet
facet normal -2.844946500601963e-16 1.0 0.0
  outer loop
    vertex 17.57739724555041 10.335879227416166 2.2499999999999996
    vertex 17.57739724555041 10.335879227416166 0.0
    vertex 6.577397245550411 10.335879227416154 0.0
  endloop
endfacet
facet normal 0.0 0.0 1.0
  outer loop
    vertex 19.32739724555042 -8.914120772583837 2.2499999999999996
    vertex 17.57739724555041 10.335879227416166 2.2499999999999996
    vertex 15.577397245550419 0.835879227416161 2.2499999999999996
  endloop
endfacet
facet normal 0.7071067811865476 0.7071067811865476 0.0
  outer loop
    vertex 17.57739724555041 10.335879227416166 0.0
    vertex 21.577397245550415 6.335879227416169 2.2499999999999996
    vertex 21.577397245550415 6.335879227416169 0.0
  endloop
endfacet
facet normal 2.844946500601963e-16 -1.0 0.0
  outer loop
    vertex 6.57739724555042 -20.664120772583843 2.2499999999999996
    vertex 6.57739724555042 -20.664120772583843 0.0
    vertex 14.077397245550422 -20.664120772583825 0.0
  endloop
endfacet
facet normal 1.0 2.844946500601963e-16 0.0
  outer loop
    vertex 21.577397245550415 6.335879227416169 2.2499999999999996
    vertex 21.577397245550415 0.08587922741616072 2.2499999999999996
    vertex 21.577397245550415 6.335879227416169 0.0
  endloop
endfacet
facet normal 0.7071067811865478 -0.7071067811865475 0.0
  outer loop
    vertex 10.077397245550415 2.335879227416161 2.2499999999999996
    vertex 8.577397245550413 0.8358792274161573 2.2499999999999996
    vertex 8.577397245550413 0.8358792274161573 0.0
  endloop
endfacet
facet normal 1.0 2.844946500601963e-16 0.0
  outer loop
    vertex 34.327397245550415 -1.4141207725838312 0.0
    vertex 34.327397245550415 -8.914120772583827 2.2499999999999996
    vertex 34.327397245550415 -8.914120772583827 0.0
  endloop
endfacet
facet normal 2.844946500601963e-16 -1.0 0.0
  outer loop
    vertex 29.327397245550433 -8.914120772583837 2.2499999999999996
    vertex 29.327397245550433 -8.914120772583837 0.0
    vertex 34.327397245550415 -8.914120772583827 0.0
  endloop
endfacet
facet normal -1.0 -2.844946500601963e-16 0.0
  outer loop
    vertex 29.32739724555041 -1.4141207725838374 2.2499999999999996
    vertex 29.327397245550433 -8.914120772583837 0.0
    vertex 29.327397245550433 -8.914120772583837 2.2499999999999996
  endloop
endfacet
facet normal 0.7071067811865476 -0.7071067811865476 0.0
  outer loop
    vertex 10.077397245550415 2.335879227416161 2.2499999999999996
    vertex 8.577397245550413 0.8358792274161573 0.0
    vertex 10.077397245550415 2.335879227416161 0.0
  endloop
endfacet
facet normal -1.0 -2.844946500601963e-16 0.0
  outer loop
    vertex 29.32739724555041 -1.4141207725838374 0.0
    vertex 29.327397245550433 -8.914120772583837 0.0
    vertex 29.32739724555041 -1.4141207725838374 2.2499999999999996
  endloop
endfacet
facet normal 0.0 0.0 -1.0
  outer loop
    vertex 6.577397245550411 10.335879227416154 0.0
    vertex 2.5773972455504204 -16.66412077258384 0.0
    vertex 2.5773972455504124 6.335879227416157 0.0
  endloop
endfacet
facet normal 0.0 0.0 -1.0
  outer loop
    vertex 6.57739724555042 -20.664120772583843 0.0
    vertex 2.5773972455504204 -16.66412077258384 0.0
    vertex 6.577397245550411 10.335879227416154 0.0
  endloop
endfacet
facet normal 0.0 0.0 -1.0
  outer loop
    vertex 14.077397245550422 -20.664120772583825 0.0
    vertex 6.57739724555042 -20.664120772583843 0.0
    vertex 14.077397245550411 -13.16412077258384 0.0
  endloop
endfacet
facet normal 0.0 0.0 -1.0
  outer loop
    vertex 14.077397245550411 -13.16412077258384 0.0
    vertex 6.57739724555042 -20.664120772583843 0.0
    vertex 10.077397245550415 -13.164120772583844 0.0
  endloop
endfacet
facet normal 0.0 0.0 -1.0
  outer loop
    vertex 8.577397245550413 0.8358792274161573 0.0
    vertex 6.57739724555042 -20.664120772583843 0.0
    vertex 6.577397245550411 10.335879227416154 0.0
  endloop
endfacet
facet normal 0.0 0.0 -1.0
  outer loop
    vertex 17.57739724555041 10.335879227416166 0.0
    vertex 8.577397245550413 0.8358792274161573 0.0
    vertex 6.577397245550411 10.335879227416154 0.0
  endloop
endfacet
facet normal 0.0 0.0 -1.0
  outer loop
    vertex 10.077397245550415 -13.164120772583844 0.0
    vertex 6.57739724555042 -20.664120772583843 0.0
    vertex 8.577397245550413 -11.66412077258384 0.0
  endloop
endfacet
facet normal 0.0 0.0 -1.0
  outer loop
    vertex 8.577397245550413 -11.66412077258384 0.0
    vertex 6.57739724555042 -20.664120772583843 0.0
    vertex 8.577397245550413 0.8358792274161573 0.0
  endloop
endfacet
facet normal 0.0 0.0 -1.0
  outer loop
    vertex 17.57739724555041 10.335879227416166 0.0
    vertex 10.077397245550415 2.335879227416161 0.0
    vertex 8.577397245550413 0.8358792274161573 0.0
  endloop
endfacet
facet normal 0.0 0.0 -1.0
  outer loop
    vertex 17.57739724555041 10.335879227416166 0.0
    vertex 14.077397245550404 2.3358792274161604 0.0
    vertex 10.077397245550415 2.335879227416161 0.0
  endloop
endfacet
facet normal 0.0 0.0 -1.0
  outer loop
    vertex 17.57739724555041 10.335879227416166 0.0
    vertex 15.577397245550419 0.835879227416161 0.0
    vertex 14.077397245550404 2.3358792274161604 0.0
  endloop
endfacet
facet normal 0.0 0.0 -1.0
  outer loop
    vertex 17.57739724555041 10.335879227416166 0.0
    vertex 15.577397245550419 -5.164120772583841 0.0
    vertex 15.577397245550419 0.835879227416161 0.0
  endloop
endfacet
facet normal 0.0 0.0 -1.0
  outer loop
    vertex 19.32739724555042 -8.914120772583837 0.0
    vertex 15.577397245550419 -5.164120772583841 0.0
    vertex 17.57739724555041 10.335879227416166 0.0
  endloop
endfacet
facet normal 0.0 0.0 -1.0
  outer loop
    vertex 26.827397245550426 -1.4141207725838305 0.0
    vertex 26.82739724555041 -8.914120772583834 0.0
    vertex 19.32739724555042 -8.914120772583837 0.0
  endloop
endfacet
facet normal 0.0 0.0 -1.0
  outer loop
    vertex 26.827397245550426 -1.4141207725838305 0.0
    vertex 19.32739724555042 -8.914120772583837 0.0
    vertex 23.07739724555041 -1.4141207725838365 0.0
  endloop
endfacet
facet normal 0.0 0.0 -1.0
  outer loop
    vertex 23.07739724555041 -1.4141207725838365 0.0
    vertex 19.32739724555042 -8.914120772583837 0.0
    vertex 21.577397245550415 0.08587922741616072 0.0
  endloop
endfacet
facet normal 0.0 0.0 -1.0
  outer loop
    vertex 21.577397245550415 0.08587922741616072 0.0
    vertex 19.32739724555042 -8.914120772583837 0.0
    vertex 21.577397245550415 6.335879227416169 0.0
  endloop
endfacet
facet normal 0.0 0.0 -1.0
  outer loop
    vertex 21.577397245550415 6.335879227416169 0.0
    vertex 19.32739724555042 -8.914120772583837 0.0
    vertex 17.57739724555041 10.335879227416166 0.0
  endloop
endfacet
facet normal 0.0 0.0 -1.0
  outer loop
    vertex 34.327397245550415 -1.4141207725838312 0.0
    vertex 29.327397245550433 -8.914120772583837 0.0
    vertex 29.32739724555041 -1.4141207725838374 0.0
  endloop
endfacet
facet normal 0.0 0.0 -1.0
  outer loop
    vertex 34.327397245550415 -8.914120772583827 0.0
    vertex 29.327397245550433 -8.914120772583837 0.0
    vertex 34.327397245550415 -1.4141207725838312 0.0
  endloop
endfacet
endsolid Untitled-59c28170
